<svg width="1360" height="252" viewBox="0 0 1360 252" fill="none" xmlns="http://www.w3.org/2000/svg">
<path d="M1305.82 252C1293 252 1282.52 249.295 1274.37 243.885C1266.33 238.474 1260.38 230.452 1256.55 219.818C1252.71 209.184 1250.79 196.031 1250.79 180.36V67.7225C1250.79 53.5437 1252.66 41.4171 1256.41 31.3427C1260.15 21.2683 1266.09 13.5259 1274.23 8.11561C1282.38 2.70529 1293.04 0.00012207 1306.24 0.00012207C1316.16 0.00012207 1324.53 1.53927 1331.36 4.61756C1338.2 7.69585 1343.72 12.1734 1347.93 18.0501C1352.14 23.8335 1355.18 30.9229 1357.05 39.3183C1359.02 47.6203 1360 57.0884 1360 67.7225V180.36C1360 196.031 1358.13 209.184 1354.38 219.818C1350.74 230.452 1344.93 238.474 1336.98 243.885C1329.02 249.295 1318.64 252 1305.82 252ZM1305.82 219.538C1310.5 219.538 1314.01 218.139 1316.34 215.34C1318.68 212.542 1320.23 208.298 1320.98 202.608C1321.82 196.824 1322.24 189.548 1322.24 180.78V66.0434C1322.24 55.3161 1321.21 47.0606 1319.15 41.2772C1317.19 35.4005 1312.88 32.4621 1306.24 32.4621C1299.41 32.4621 1294.77 35.3072 1292.34 40.9973C1289.91 46.5942 1288.69 54.8963 1288.69 65.9035V180.78C1288.69 189.735 1289.07 197.104 1289.81 202.887C1290.66 208.578 1292.29 212.775 1294.73 215.48C1297.25 218.186 1300.95 219.538 1305.82 219.538Z" fill="white"/>
<path d="M1123.26 249.202V2.93835H1185.44C1198.36 2.93835 1208 5.45695 1214.36 10.4942C1220.72 15.5314 1224.89 22.9006 1226.85 32.6019C1228.91 42.3032 1229.94 54.1499 1229.94 68.1421C1229.94 82.6008 1228.44 93.9811 1225.45 102.283C1222.55 110.492 1216.56 115.996 1207.48 118.794C1211.79 119.54 1215.39 121.313 1218.29 124.111C1221.19 126.816 1223.53 130.827 1225.31 136.144C1227.09 141.368 1228.35 148.131 1229.1 156.433C1229.94 164.642 1230.36 174.716 1230.36 186.656C1230.36 187.589 1230.36 190.201 1230.36 194.492C1230.36 198.783 1230.36 203.867 1230.36 209.743C1230.45 215.527 1230.55 221.31 1230.64 227.094C1230.73 232.877 1230.88 237.821 1231.06 241.926C1231.25 246.03 1231.48 248.455 1231.76 249.202H1194.15C1193.86 248.735 1193.63 246.356 1193.44 242.065C1193.35 237.681 1193.21 232.131 1193.02 225.415C1192.93 218.698 1192.84 211.469 1192.74 203.727C1192.74 195.984 1192.74 188.382 1192.74 180.919C1192.74 173.364 1192.74 166.694 1192.74 160.911C1192.74 153.541 1192.18 147.991 1191.06 144.26C1190.03 140.435 1188.06 137.777 1185.16 136.284C1182.35 134.792 1178.28 133.906 1172.95 133.626L1160.88 132.926V249.202H1123.26ZM1161.02 103.822H1176.04C1180.62 103.822 1184.09 102.796 1186.43 100.744C1188.86 98.6918 1190.5 94.9139 1191.34 89.4103C1192.27 83.9067 1192.74 75.9778 1192.74 65.6235V64.0844C1192.74 55.4092 1192.32 48.7396 1191.48 44.0755C1190.64 39.4114 1188.86 36.1932 1186.14 34.4209C1183.52 32.6485 1179.41 31.7623 1173.79 31.7623H1161.02V103.822Z" fill="white"/>
<path d="M999.375 249.202V2.93835H1056.08C1065.91 2.93835 1074.05 4.43086 1080.51 7.41587C1087.06 10.4009 1092.21 14.8317 1095.95 20.7085C1099.69 26.5852 1102.36 33.8612 1103.95 42.5364C1105.54 51.1183 1106.34 61.0527 1106.34 72.3398V77.5169C1106.34 93.3748 1104.93 106.901 1102.13 118.094C1099.41 129.195 1094.5 137.637 1087.39 143.42C1080.27 149.204 1070.26 152.095 1057.35 152.095H1036.99V249.202H999.375ZM1036.99 121.173H1049.91C1055.43 121.173 1059.55 119.773 1062.26 116.975C1064.97 114.177 1066.75 109.559 1067.59 103.123C1068.53 96.593 1069 87.9178 1069 77.0972V72.3398C1068.9 59.0005 1067.73 48.9261 1065.49 42.1166C1063.24 35.2138 1058.14 31.7623 1050.19 31.7623H1036.99V121.173Z" fill="white"/>
<path d="M825.721 249.202V2.93835H887.904C900.818 2.93835 910.457 5.45695 916.82 10.4942C923.184 15.5314 927.348 22.9006 929.313 32.6019C931.372 42.3032 932.401 54.1499 932.401 68.1421C932.401 82.6008 930.904 93.9811 927.91 102.283C925.009 110.492 919.02 115.996 909.942 118.794C914.247 119.54 917.85 121.313 920.751 124.111C923.652 126.816 925.991 130.827 927.769 136.144C929.547 141.368 930.811 148.131 931.559 156.433C932.401 164.642 932.823 174.716 932.823 186.656C932.823 187.589 932.823 190.201 932.823 194.492C932.823 198.783 932.823 203.867 932.823 209.743C932.916 215.527 933.01 221.31 933.103 227.094C933.197 232.877 933.337 237.821 933.524 241.926C933.712 246.03 933.946 248.455 934.226 249.202H896.607C896.327 248.735 896.093 246.356 895.905 242.065C895.812 237.681 895.671 232.131 895.484 225.415C895.391 218.698 895.297 211.469 895.204 203.727C895.204 195.984 895.204 188.382 895.204 180.919C895.204 173.364 895.204 166.694 895.204 160.911C895.204 153.541 894.642 147.991 893.519 144.26C892.49 140.435 890.525 137.777 887.624 136.284C884.816 134.792 880.746 133.906 875.411 133.626L863.34 132.926V249.202H825.721ZM863.48 103.822H878.5C883.085 103.822 886.547 102.796 888.887 100.744C891.32 98.6918 892.958 94.9139 893.8 89.4103C894.736 83.9067 895.204 75.9778 895.204 65.6235V64.0844C895.204 55.4092 894.782 48.7396 893.94 44.0755C893.098 39.4114 891.32 36.1932 888.606 34.4209C885.986 32.6485 881.868 31.7623 876.254 31.7623H863.48V103.822Z" fill="white"/>
<path d="M722.049 249.202V2.93835H804.867V35.2604H759.668V106.901H802.621V138.523H759.668V216.879H806.551V249.202H722.049Z" fill="white"/>
<path d="M625.115 249.202V2.93835H662.734V217.299H710.319V249.202H625.115Z" fill="white"/>
<path d="M528.181 249.202V2.93835H565.8V217.299H613.385V249.202H528.181Z" fill="white"/>
<path d="M391.945 249.202L427.178 2.93835H476.869L514.347 249.202H479.255L473.36 205.266H433.495L428.161 249.202H391.945ZM437.144 175.183H469.429L452.866 51.4914H452.304L437.144 175.183Z" fill="white"/>
<path d="M335.719 249.202V35.4003H306.803V2.93835H400.991V35.4003H373.197V249.202H335.719Z" fill="white"/>
<path d="M253.524 252C243.23 252 234.621 250.414 227.696 247.243C220.865 243.978 215.437 239.267 211.413 233.111C207.483 226.861 204.675 219.305 202.991 210.443C201.307 201.488 200.464 191.32 200.464 179.94V157.972H236.118V182.738C236.118 195.984 237.241 205.499 239.487 211.283C241.733 217.066 246.178 219.958 252.822 219.958C257.314 219.958 260.683 218.932 262.929 216.88C265.268 214.734 266.812 211.376 267.561 206.805C268.403 202.141 268.824 196.078 268.824 188.615C268.824 179.38 266.859 170.938 262.929 163.289C259.092 155.64 253.243 147.711 245.383 139.503L227.135 120.753C222.081 115.529 217.496 109.979 213.378 104.102C209.354 98.2254 206.126 91.6957 203.693 84.5131C201.353 77.2371 200.184 69.1216 200.184 60.1666C200.184 47.2004 201.774 36.2399 204.956 27.2848C208.138 18.3298 213.519 11.5669 221.099 6.99611C228.679 2.33204 239.066 0 252.261 0C262.18 0 270.322 1.53914 276.685 4.61743C283.142 7.60244 288.148 12.0333 291.704 17.9101C295.354 23.6935 297.927 30.7829 299.425 39.1782C300.922 47.4803 301.671 56.995 301.671 67.7224V82.9739H266.999V65.3437C266.999 57.8812 266.578 51.678 265.736 46.734C264.987 41.7901 263.537 38.1055 261.385 35.6802C259.232 33.1616 256.097 31.9023 251.98 31.9023C248.05 31.9023 244.868 32.7885 242.435 34.5608C240.002 36.2399 238.224 38.8984 237.101 42.5364C236.071 46.0811 235.557 50.6985 235.557 56.3887C235.557 61.5192 236.212 65.95 237.522 69.6813C238.832 73.4126 240.844 77.0039 243.558 80.4553C246.272 83.9067 249.64 87.7779 253.664 92.0689L274.018 114.037C283.75 124.484 291.33 135.351 296.758 146.639C302.185 157.926 304.899 170.519 304.899 184.418C304.899 199.156 303.308 211.562 300.127 221.637C296.945 231.618 291.611 239.174 284.124 244.304C276.638 249.435 266.438 252 253.524 252Z" fill="white"/>
<path d="M66.8945 249.202V2.93835H96.3721L148.73 150.696L146.063 83.5336V2.93835H179.892V249.202H153.222L99.4602 96.2665L101.566 160.911V249.202H66.8945Z" fill="white"/>
<path d="M0 249.202V2.93835H37.619V249.202H0Z" fill="white"/>
</svg>
